HIERARCHY
ROOT Hips
{
 OFFSET 0.000000 0.000000 0.000000
 CHANNELS 6 Xposition Yposition Zposition Yrotation Xrotation Zrotation
 JOINT Chest
 {
  OFFSET 0.000000 9.585900 0.002600
  CHANNELS 3 Yrotation Xrotation Zrotation
  JOINT Chest2
  {
   OFFSET 0.000000 9.601200 -0.005300
   CHANNELS 3 Yrotation Xrotation Zrotation
   JOINT Chest3
   {
    OFFSET 0.000000 9.561800 0.000000
    CHANNELS 3 Yrotation Xrotation Zrotation
    JOINT Chest4
    {
     OFFSET 0.000000 9.552100 0.000000
     CHANNELS 3 Yrotation Xrotation Zrotation
     JOINT Neck
     {
      OFFSET 0.000000 14.453000 0.000000
      CHANNELS 3 Yrotation Xrotation Zrotation
      JOINT Head
      {
       OFFSET 0.000000 8.936500 -0.011300
       CHANNELS 3 Yrotation Xrotation Zrotation
       End Site
       {
        OFFSET 0.000000 17.073600 -0.006000
       }
      }
     }
     JOINT RightCollar
     {
      OFFSET -2.921100 9.558500 0.000000
      CHANNELS 3 Yrotation Xrotation Zrotation
      JOINT RightShoulder
      {
       OFFSET -13.519700 0.000000 0.000000
       CHANNELS 3 Yrotation Xrotation Zrotation
       JOINT RightElbow
       {
        OFFSET 0.000000 -29.696600 0.000000
        CHANNELS 3 Yrotation Xrotation Zrotation
        JOINT RightWrist
        {
         OFFSET 0.000000 -24.004700 0.000000
         CHANNELS 3 Yrotation Xrotation Zrotation
         End Site
         {
          OFFSET 0.000000 -17.728500 0.000000
         }
        }
       }
      }
     }
     JOINT LeftCollar
     {
      OFFSET 2.921100 9.558500 0.000000
      CHANNELS 3 Yrotation Xrotation Zrotation
      JOINT LeftShoulder
      {
       OFFSET 13.519700 0.000000 0.000000
       CHANNELS 3 Yrotation Xrotation Zrotation
       JOINT LeftElbow
       {
        OFFSET 0.000000 -29.696600 0.000000
        CHANNELS 3 Yrotation Xrotation Zrotation
        JOINT LeftWrist
        {
         OFFSET 0.000000 -24.004700 0.000000
         CHANNELS 3 Yrotation Xrotation Zrotation
         End Site
         {
          OFFSET 0.000000 -17.728500 0.000000
         }
        }
       }
      }
     }
    }
   }
  }
 }
 JOINT RightHip
 {
  OFFSET -7.771700 -0.012900 -0.001300
  CHANNELS 3 Yrotation Xrotation Zrotation
  JOINT RightKnee
  {
   OFFSET 0.000000 -40.869800 0.001200
   CHANNELS 3 Yrotation Xrotation Zrotation
   JOINT RightAnkle
   {
    OFFSET 0.000000 -39.717900 0.002100
    CHANNELS 3 Yrotation Xrotation Zrotation
    JOINT RightToe
    {
     OFFSET 0.000000 -4.965400 11.033500
     CHANNELS 3 Yrotation Xrotation Zrotation
     End Site
     {
      OFFSET 0.000000 -1.423100 5.872300
     }
    }
   }
  }
 }
 JOINT LeftHip
 {
  OFFSET 7.771700 -0.012900 -0.001300
  CHANNELS 3 Yrotation Xrotation Zrotation
  JOINT LeftKnee
  {
   OFFSET 0.000000 -40.869800 0.001200
   CHANNELS 3 Yrotation Xrotation Zrotation
   JOINT LeftAnkle
   {
    OFFSET 0.000000 -39.717900 0.002100
    CHANNELS 3 Yrotation Xrotation Zrotation
    JOINT LeftToe
    {
     OFFSET 0.000000 -4.965400 11.033500
     CHANNELS 3 Yrotation Xrotation Zrotation
     End Site
     {
      OFFSET 0.000000 -1.423100 5.872300
     }
    }
   }
  }
 }
}
MOTION
Frames: 8
Frame Time: 0.008333
-61.225949 44.630056 20.988895 -172.893681 -19.886829 4.519586 -2.908479 16.990228 -1.228385 -0.121795 1.733978 0.034867 -0.202655 2.893474 0.056202 -1.027105 14.817792 0.182254 -1.328499 16.425083 -5.152826 -0.233521 -8.359277 -5.187314 3.208011 1.655772 -10.453319 -6.481956 -6.072390 -4.615404 -103.077933 -54.211468 132.811940 -19.074318 -0.682316 -45.435137 -6.418571 1.120879 -1.300325 12.323683 -5.240230 0.794774 115.079853 -56.698373 -148.486678 25.508758 12.338786 44.175783 22.150363 -69.950014 -25.138059 -142.268525 63.118564 -140.428594 -10.793640 -26.819255 11.931461 0.663056 -0.851967 -0.065191 -3.754479 -63.485356 -19.696844 153.421740 64.817355 155.627222 3.820358 -30.184109 -7.795093 0.156637 0.787062 0.245920
-61.199843 44.595994 20.979917 -172.839091 -19.755895 4.328305 -2.916170 16.926409 -1.176792 -0.122712 1.729106 0.036232 -0.204255 2.885642 0.058372 -1.035682 14.799551 0.193124 -1.356755 16.411212 -5.124723 -0.270037 -8.375559 -5.149893 3.151444 1.651611 -10.460725 -6.642680 -6.027615 -4.506948 -103.236172 -54.286758 132.916614 -19.026258 -0.685385 -45.411476 -6.528408 1.070312 -1.252525 12.180657 -5.344832 0.885878 115.068001 -56.699736 -148.450001 25.501577 12.347059 44.124364 21.708738 -70.170342 -24.684324 -142.179198 63.056377 -140.376444 -10.816553 -26.836769 11.970490 0.650974 -0.885286 0.027216 -4.201917 -63.683210 -19.152324 153.684051 64.759528 155.835086 3.728818 -30.205487 -7.789363 0.195415 0.781989 0.270643
-61.188447 44.563810 20.968633 -172.811741 -19.647765 4.212518 -2.919474 16.879348 -1.199487 -0.123020 1.725467 0.038239 -0.204762 2.879813 0.061716 -1.037604 14.786017 0.210563 -1.390318 16.403597 -5.100471 -0.311309 -8.384966 -5.115507 3.094310 1.651406 -10.471918 -6.799869 -5.978323 -4.383524 -103.413308 -54.359975 133.030533 -18.984776 -0.687547 -45.408837 -6.640539 1.024002 -1.202819 12.016860 -5.464748 0.982112 115.063243 -56.709711 -148.403063 25.498132 12.363861 44.081232 21.439408 -70.336783 -24.398247 -142.113306 63.007282 -140.343592 -10.859496 -26.874122 11.999745 0.649999 -0.881814 0.088483 -4.441967 -63.808895 -18.867939 153.763754 64.726654 155.903931 3.738373 -30.291654 -7.824161 0.186948 0.858319 0.271426
-61.168984 44.533104 20.947318 -172.767607 -19.592676 4.013958 -2.919660 16.881251 -1.149582 -0.122673 1.723063 0.040838 -0.204121 2.876017 0.066176 -1.032528 14.777239 0.234278 -1.426653 16.402904 -5.079470 -0.354732 -8.386749 -5.084125 3.037954 1.658316 -10.485798 -6.943802 -5.921731 -4.246773 -103.616752 -54.426685 133.158923 -18.949831 -0.689333 -45.427184 -6.754862 0.979399 -1.152041 11.838529 -5.593174 1.084957 115.054981 -56.721938 -148.339817 25.496455 12.393340 44.040130 20.903920 -70.473170 -23.848888 -142.060015 62.941101 -140.307776 -10.857889 -26.893870 12.007466 0.652225 -0.911843 0.129601 -4.789566 -63.901418 -18.404528 153.969870 64.656144 156.081644 3.670887 -30.334978 -7.789401 0.191963 0.849939 0.274599
-61.150644 44.500704 20.927964 -172.774004 -19.519687 3.816808 -2.872020 16.863542 -1.090292 -0.121477 1.721608 0.044080 -0.202129 2.873745 0.071618 -1.019363 14.772185 0.264089 -1.464261 16.407475 -5.061347 -0.398898 -8.382655 -5.055673 2.986140 1.672144 -10.500104 -7.069739 -5.860309 -4.100204 -103.844584 -54.491014 133.296969 -18.924690 -0.692628 -45.459838 -6.865507 0.931482 -1.101811 11.653874 -5.723237 1.192645 115.027322 -56.734033 -148.255328 25.493611 12.433136 43.997835 20.399803 -70.621986 -23.274931 -142.020383 62.912164 -140.286511 -10.861235 -26.902118 12.014625 0.639025 -0.925874 0.151225 -5.081650 -64.007911 -17.930620 154.213816 64.576586 156.299505 3.607505 -30.368812 -7.732527 0.196548 0.818658 0.271575
-61.133738 44.467883 20.906650 -172.782143 -19.457152 3.602187 -2.829276 16.852111 -1.020611 -0.119529 1.720923 0.047908 -0.198806 2.872675 0.077987 -0.998636 14.770058 0.299491 -1.502167 16.416523 -5.047403 -0.442466 -8.373509 -5.031770 2.941423 1.690957 -10.516202 -7.177629 -5.797088 -3.948622 -104.088888 -54.551764 133.435093 -18.910229 -0.695349 -45.490802 -6.965652 0.877451 -1.053818 11.472179 -5.852404 1.302916 114.967942 -56.744469 -148.147611 25.494106 12.478896 43.956905 19.804596 -70.769711 -22.583685 -141.947850 62.880585 -140.245459 -10.888687 -26.885903 11.986847 0.640301 -0.949149 0.203676 -5.391834 -64.097437 -17.450883 154.450179 64.500573 156.515734 3.599805 -30.408801 -7.679896 0.171867 0.800132 0.251924
-61.123517 44.434143 20.886529 -172.825699 -19.388134 3.414492 -2.769074 16.829904 -0.971606 -0.117040 1.720896 0.052068 -0.194535 2.872602 0.085014 -0.941407 14.754920 0.389305 -1.582561 16.444802 -5.084270 -0.484083 -8.358547 -5.014396 2.875065 1.731100 -10.580171 -7.273012 -5.731980 -3.794726 -104.337611 -54.600345 133.565427 -18.902242 -0.698440 -45.507938 -7.087384 0.831056 -1.052119 11.308918 -5.982290 1.411483 114.868250 -56.750121 -148.018167 25.499898 12.529775 43.914653 19.333462 -70.905811 -22.017443 -141.956595 62.880919 -140.272484 -10.838845 -26.875291 11.942792 0.601827 -0.973872 0.246937 -5.609728 -64.195911 -17.027578 154.700313 64.416397 156.745387 3.583808 -30.426941 -7.608407 0.156152 0.759810 0.208311
-61.112566 44.399936 20.864355 -172.869027 -19.328288 3.196125 -2.711718 16.812097 -0.896130 -0.114057 1.721334 0.056386 -0.189458 2.873339 0.092263 -0.875952 14.743979 0.482091 -1.664909 16.476352 -5.126647 -0.522679 -8.337161 -5.003131 2.815449 1.773002 -10.646257 -7.360955 -5.668760 -3.641096 -104.572885 -54.634538 133.675077 -18.894830 -0.702213 -45.505593 -7.207023 0.785372 -1.051591 11.171254 -6.113741 1.516649 114.734173 -56.748347 -147.877916 25.506215 12.579552 43.869308 18.734230 -71.042325 -21.300963 -141.915308 62.871048 -140.255316 -10.830216 -26.855583 11.903889 0.633427 -0.962793 0.291783 -5.870685 -64.286022 -16.550232 154.950939 64.321576 156.979583 3.560478 -30.444215 -7.514173 0.136085 0.715453 0.167451
